<svg version="1.1" xmlns="http://www.w3.org/2000/svg" xmlns:xlink="http://www.w3.org/1999/xlink" width="401" height="401" viewBox="0 0 401 401">
<g id="Group-1">
<path id="Ellipse-1" d="M200.500,-0.000 C311.233,-0.000 401.000,89.767 401.000,200.500 C401.000,311.233 311.233,401.000 200.500,401.000 C89.767,401.000 -0.000,311.233 -0.000,200.500 C-0.000,89.767 89.767,-0.000 200.500,-0.000 z" fill="#DE553D" />
<path id="Ellipse-2" d="M200.500,13.094 C304.002,13.094 387.906,96.998 387.906,200.500 C387.906,304.002 304.002,387.906 200.500,387.906 C96.998,387.906 13.094,304.002 13.094,200.500 C13.094,96.998 96.998,13.094 200.500,13.094 z" fill="#FBDD63" />
<path id="Color-Fill-8" d="M323.337,88.247 C348.794,116.079 364.917,152.586 366.743,192.834 C366.743,192.834 218.749,192.834 218.749,192.834 C253.611,157.973 288.475,123.109 323.337,88.247 zM207.003,34.229 C247.748,35.799 284.728,52.020 312.843,77.756 C277.562,113.033 242.283,148.312 207.003,183.592 C207.003,183.592 207.003,183.592 207.003,34.229 zM192.163,34.276 C192.163,34.276 192.163,181.085 192.163,181.085 C157.605,146.531 123.050,111.976 88.493,77.421 C116.141,52.240 152.302,36.242 192.163,34.276 zM34.254,192.834 C36.085,152.419 52.340,115.773 77.981,87.887 C112.963,122.871 147.942,157.853 182.920,192.834 C182.920,192.834 182.920,192.834 34.254,192.834 zM77.747,312.850 C52.144,284.887 35.960,248.157 34.242,207.675 C34.242,207.675 182.920,207.675 182.920,207.675 C182.920,207.675 182.920,207.675 77.747,312.850 zM192.160,366.722 C152.176,364.747 115.921,348.658 88.236,323.342 C122.880,288.701 157.521,254.059 192.160,219.421 C192.160,219.421 192.160,219.421 192.160,366.722 zM207.003,366.765 C207.003,366.765 207.003,216.914 207.003,216.914 C242.367,252.275 277.730,287.638 313.090,323.002 C284.945,348.877 247.867,365.193 207.003,366.765 zM366.754,207.675 C365.042,247.987 348.984,284.575 323.562,312.489 C288.623,277.552 253.689,242.614 218.749,207.675 C218.749,207.675 218.749,207.675 366.754,207.675 z" fill="#EE893A" />
<path id="Color-Fill-24" d="M320.460,181.492 C289.708,184.715 289.708,184.715 289.708,184.715 C288.328,184.819 287.132,183.784 287.028,182.406 C286.928,181.029 287.963,179.830 289.337,179.730 C320.095,176.507 320.095,176.507 320.095,176.507 C321.470,176.404 322.669,177.442 322.771,178.819 C322.869,180.196 321.840,181.392 320.460,181.492 zM303.681,158.512 C259.228,174.657 259.228,174.657 259.228,174.657 C257.929,175.128 256.496,174.458 256.025,173.162 C255.554,171.866 256.223,170.430 257.523,169.959 C301.975,153.811 301.975,153.811 301.975,153.811 C303.271,153.339 304.704,154.011 305.178,155.308 C305.643,156.605 304.978,158.041 303.681,158.512 zM279.642,235.806 C278.945,236.993 277.414,237.393 276.224,236.696 C249.094,221.858 249.094,221.858 249.094,221.858 C247.903,221.155 247.507,219.625 248.204,218.435 C248.904,217.244 250.440,216.845 251.627,217.545 C278.761,232.383 278.761,232.383 278.761,232.383 C279.951,233.080 280.344,234.616 279.642,235.806 zM223.417,152.411 C222.728,153.610 221.200,154.016 220.004,153.331 C218.808,152.642 218.395,151.111 219.084,149.915 C242.690,108.934 242.690,108.934 242.690,108.934 C243.379,107.738 244.910,107.329 246.108,108.017 C247.302,108.705 247.711,110.233 247.023,111.429 C223.417,152.411 223.417,152.411 223.417,152.411 zM223.107,111.895 C222.823,113.250 221.495,114.108 220.147,113.824 C218.797,113.539 217.930,112.210 218.218,110.860 C228.029,64.592 228.029,64.592 228.029,64.592 C228.319,63.243 229.646,62.381 230.992,62.666 C232.339,62.953 233.206,64.280 232.916,65.629 C223.107,111.895 223.107,111.895 223.107,111.895 zM219.371,243.538 C226.341,290.315 226.341,290.315 226.341,290.315 C226.545,291.681 225.599,292.953 224.233,293.156 C222.870,293.357 221.599,292.414 221.395,291.054 C214.428,244.276 214.428,244.276 214.428,244.276 C214.222,242.907 215.161,241.639 216.527,241.433 C217.891,241.229 219.165,242.174 219.371,243.538 zM184.231,156.267 C182.992,156.878 181.492,156.365 180.885,155.127 C166.403,127.802 166.403,127.802 166.403,127.802 C165.792,126.563 166.312,125.067 167.549,124.456 C168.787,123.851 170.282,124.358 170.889,125.599 C185.371,152.921 185.371,152.921 185.371,152.921 C185.979,154.162 185.469,155.659 184.231,156.267 zM174.503,103.793 C173.265,104.404 171.765,103.893 171.160,102.653 C156.679,75.328 156.679,75.328 156.679,75.328 C156.068,74.089 156.584,72.590 157.822,71.980 C159.061,71.375 160.557,71.885 161.165,73.123 C175.643,100.447 175.643,100.447 175.643,100.447 C176.251,101.688 175.741,103.185 174.503,103.793 zM131.494,181.052 C84.870,173.107 84.870,173.107 84.870,173.107 C83.510,172.876 82.598,171.582 82.827,170.221 C83.061,168.863 84.352,167.946 85.712,168.178 C132.334,176.123 132.334,176.123 132.334,176.123 C133.694,176.354 134.609,177.648 134.377,179.006 C134.146,180.366 132.855,181.283 131.494,181.052 zM105.014,151.354 C76.688,138.947 76.688,138.947 76.688,138.947 C75.439,138.356 74.909,136.862 75.503,135.616 C76.097,134.372 77.586,133.839 78.832,134.431 C107.156,146.835 107.156,146.835 107.156,146.835 C108.405,147.429 108.934,148.921 108.343,150.167 C107.749,151.413 106.257,151.945 105.014,151.354 zM84.784,263.692 C126.418,241.254 126.418,241.254 126.418,241.254 C127.636,240.593 129.147,241.053 129.803,242.260 C130.458,243.476 130.003,244.993 128.791,245.653 C87.160,268.094 87.160,268.094 87.160,268.094 C85.941,268.747 84.427,268.292 83.772,267.077 C83.117,265.861 83.569,264.348 84.784,263.692 zM148.867,288.165 C149.528,286.950 151.042,286.507 152.255,287.165 C153.470,287.820 153.919,289.342 153.256,290.555 C139.319,318.159 139.319,318.159 139.319,318.159 C138.657,319.375 137.138,319.816 135.923,319.160 C134.716,318.497 134.266,316.980 134.927,315.773 C148.867,288.165 148.867,288.165 148.867,288.165 zM108.579,226.221 C108.334,224.866 109.232,223.561 110.590,223.316 C157.117,214.815 157.117,214.815 157.117,214.815 C158.475,214.565 159.773,215.462 160.027,216.823 C160.272,218.178 159.375,219.482 158.014,219.731 C111.487,228.232 111.487,228.232 111.487,228.232 C110.132,228.480 108.828,227.579 108.579,226.221 zM180.659,248.726 C181.320,247.513 182.840,247.067 184.052,247.725 C185.267,248.383 185.716,249.905 185.053,251.115 C171.113,278.722 171.113,278.722 171.113,278.722 C170.455,279.935 168.932,280.379 167.717,279.718 C166.507,279.060 166.058,277.543 166.719,276.331 C180.659,248.726 180.659,248.726 180.659,248.726 zM240.958,272.480 C242.193,271.864 243.693,272.366 244.315,273.601 C265.378,315.946 265.378,315.946 265.378,315.946 C265.991,317.181 265.487,318.684 264.252,319.297 C263.017,319.910 261.519,319.408 260.901,318.171 C239.840,275.828 239.840,275.828 239.840,275.828 C239.222,274.593 239.729,273.094 240.958,272.480 zM290.000,250.616 C317.130,265.454 317.130,265.454 317.130,265.454 C318.324,266.154 318.714,267.687 318.020,268.881 C317.314,270.066 315.784,270.464 314.599,269.764 C287.468,254.929 287.468,254.929 287.468,254.929 C286.272,254.230 285.879,252.699 286.579,251.508 C287.273,250.318 288.809,249.916 290.000,250.616 z" fill="#FFFFFF" />
</g>
</svg>
